<?xml version="1.0" standalone="no"?>
<svg viewBox="0 0 200 200" xmlns="http://www.w3.org/2000/svg">
  <path fill="#FF0066" d="M25.5,-40.3C33,-34.8,39.1,-27.7,45.1,-19.2C51.2,-10.7,57.1,-0.8,60.5,12.1C63.9,25,64.8,41,57,48.5C49.1,56.1,32.6,55.3,17.2,60.9C1.8,66.6,-12.5,78.7,-23.4,76.9C-34.4,75,-42.1,59.1,-52.3,46C-62.4,33,-75.1,22.8,-74.4,12.1C-73.7,1.4,-59.7,-9.7,-50.6,-20.4C-41.5,-31,-37.2,-41.2,-29.6,-46.6C-22,-52.1,-11,-52.8,-1,-51.3C9,-49.7,18,-45.8,25.5,-40.3Z" transform="translate(100 100)" />
</svg>
